<svg width="4114" height="2324" viewBox="0 0 4114 2324" fill="none" xmlns="http://www.w3.org/2000/svg">
<rect width="4114" height="2324" fill="#3B46F1"/>
<path d="M421.024 1346L492.704 987.6H591.008L686.752 1221.58H634.528L818.848 987.6H921.76L851.104 1346H741.024L778.4 1153.49L795.808 1152.46L671.904 1313.74H618.656L549.024 1151.95L569.504 1153.49L531.104 1346H421.024ZM1083.09 1354.19C1045.89 1354.19 1013.63 1347.37 986.324 1333.71C959.359 1320.06 938.367 1301.29 923.348 1277.39C908.671 1253.16 901.332 1225.34 901.332 1193.94C901.332 1162.19 906.793 1133.35 917.716 1107.41C928.98 1081.13 944.681 1058.43 964.82 1039.31C984.959 1020.2 1008.85 1005.52 1036.5 995.28C1064.15 984.699 1094.36 979.408 1127.12 979.408C1164.33 979.408 1196.41 986.235 1223.38 999.888C1250.69 1013.54 1271.68 1032.49 1286.36 1056.72C1301.37 1080.61 1308.88 1108.26 1308.88 1139.66C1308.88 1171.41 1303.25 1200.42 1291.99 1226.7C1281.07 1252.65 1265.53 1275.17 1245.4 1294.29C1225.26 1313.4 1201.36 1328.25 1173.72 1338.83C1146.07 1349.07 1115.86 1354.19 1083.09 1354.19ZM1093.33 1256.4C1108.35 1256.4 1121.49 1253.5 1132.76 1247.7C1144.36 1241.89 1154.26 1233.87 1162.45 1223.63C1170.64 1213.39 1176.79 1201.79 1180.88 1188.82C1184.98 1175.5 1187.03 1161.51 1187.03 1146.83C1187.03 1132.84 1184.13 1120.72 1178.32 1110.48C1172.86 1099.9 1164.84 1091.71 1154.26 1085.9C1144.02 1080.1 1131.56 1077.2 1116.88 1077.2C1102.21 1077.2 1089.07 1080.1 1077.46 1085.9C1065.85 1091.71 1055.96 1099.73 1047.76 1109.97C1039.57 1120.21 1033.43 1131.98 1029.33 1145.3C1025.24 1158.27 1023.19 1172.09 1023.19 1186.77C1023.19 1200.42 1025.92 1212.54 1031.38 1223.12C1037.18 1233.7 1045.2 1241.89 1055.44 1247.7C1066.03 1253.5 1078.65 1256.4 1093.33 1256.4ZM1360.03 1346L1412.76 1081.3H1307.8L1326.75 987.6H1657.5L1638.56 1081.3H1533.6L1480.86 1346H1360.03ZM1785.77 1354.19C1748.57 1354.19 1716.31 1347.37 1689 1333.71C1662.04 1320.06 1641.05 1301.29 1626.03 1277.39C1611.35 1253.16 1604.01 1225.34 1604.01 1193.94C1604.01 1162.19 1609.47 1133.35 1620.4 1107.41C1631.66 1081.13 1647.36 1058.43 1667.5 1039.31C1687.64 1020.2 1711.53 1005.52 1739.18 995.28C1766.83 984.699 1797.04 979.408 1829.8 979.408C1867.01 979.408 1899.09 986.235 1926.06 999.888C1953.37 1013.54 1974.36 1032.49 1989.04 1056.72C2004.05 1080.61 2011.56 1108.26 2011.56 1139.66C2011.56 1171.41 2005.93 1200.42 1994.67 1226.7C1983.75 1252.65 1968.21 1275.17 1948.08 1294.29C1927.94 1313.4 1904.04 1328.25 1876.4 1338.83C1848.75 1349.07 1818.54 1354.19 1785.77 1354.19ZM1796.01 1256.4C1811.03 1256.4 1824.17 1253.5 1835.44 1247.7C1847.04 1241.89 1856.94 1233.87 1865.13 1223.63C1873.32 1213.39 1879.47 1201.79 1883.56 1188.82C1887.66 1175.5 1889.71 1161.51 1889.71 1146.83C1889.71 1132.84 1886.81 1120.72 1881 1110.48C1875.54 1099.9 1867.52 1091.71 1856.94 1085.9C1846.7 1080.1 1834.24 1077.2 1819.56 1077.2C1804.89 1077.2 1791.75 1080.1 1780.14 1085.9C1768.53 1091.71 1758.64 1099.73 1750.44 1109.97C1742.25 1120.21 1736.11 1131.98 1732.01 1145.3C1727.92 1158.27 1725.87 1172.09 1725.87 1186.77C1725.87 1200.42 1728.6 1212.54 1734.06 1223.12C1739.86 1233.7 1747.88 1241.89 1758.12 1247.7C1768.71 1253.5 1781.33 1256.4 1796.01 1256.4ZM1989.88 1346L2061.56 987.6H2222.33C2269.78 987.6 2306.47 998.011 2332.41 1018.83C2358.35 1039.31 2371.32 1068.15 2371.32 1105.36C2371.32 1135.4 2363.81 1161.68 2348.8 1184.21C2334.12 1206.74 2313.13 1224.31 2285.82 1236.94C2258.85 1249.57 2226.94 1255.89 2190.08 1255.89H2074.36L2138.88 1205.2L2110.72 1346H1989.88ZM2209.02 1346L2135.29 1215.44H2259.71L2334.46 1346H2209.02ZM2135.8 1219.54L2093.31 1164.75H2196.22C2212.95 1164.75 2225.92 1160.66 2235.13 1152.46C2244.35 1143.93 2248.96 1132.15 2248.96 1117.14C2248.96 1104.17 2244.86 1094.95 2236.67 1089.49C2228.82 1083.69 2217.89 1080.78 2203.9 1080.78H2110.2L2174.72 1024.46L2135.8 1219.54ZM2343.22 1346L2414.9 987.6H2535.74L2483 1252.3H2644.79L2625.85 1346H2343.22ZM2809.3 1354.19C2772.09 1354.19 2741.03 1347.19 2716.12 1333.2C2691.2 1318.86 2673.45 1299.07 2662.87 1273.81C2652.63 1248.21 2650.92 1218.51 2657.75 1184.72L2697.17 987.6H2818L2779.09 1182.67C2776.7 1195.3 2775.85 1206.22 2776.53 1215.44C2777.21 1224.66 2779.43 1232.34 2783.19 1238.48C2787.28 1244.62 2792.75 1249.23 2799.57 1252.3C2806.4 1255.03 2814.59 1256.4 2824.15 1256.4C2835.75 1256.4 2845.65 1254.01 2853.84 1249.23C2862.38 1244.45 2869.37 1236.6 2874.84 1225.68C2880.64 1214.76 2885.25 1200.42 2888.66 1182.67L2927.57 987.6H3046.36L3005.91 1189.84C2995.33 1243.43 2973.65 1284.22 2940.88 1312.21C2908.12 1340.2 2864.25 1354.19 2809.3 1354.19ZM2963.11 1346L3165.35 1124.3L3149.48 1194.45L3041.45 987.6H3170.47L3232.94 1115.09L3180.71 1116.11L3291.3 987.6H3427.5L3238.57 1195.98L3242.66 1127.89L3360.42 1346H3229.86L3164.84 1211.86L3219.62 1212.88L3107.5 1346H2963.11ZM3503.89 1120.72H3663.64L3646.23 1207.76H3486.48L3503.89 1120.72ZM3484.95 1254.86H3664.66L3646.23 1346H3348.24L3419.92 987.6H3711.25L3692.82 1078.74H3520.28L3484.95 1254.86Z" fill="white"/>
</svg>
